<mxfile host="Electron" agent="Mozilla/5.0 (Windows NT 10.0; Win64; x64) AppleWebKit/537.36 (KHTML, like Gecko) draw.io/24.7.17 Chrome/128.0.6613.36 Electron/32.0.1 Safari/537.36" version="24.7.17">
  <diagram name="Page-1" id="Oa-FK26bRFCPUcySIC0h">
    <mxGraphModel dx="934" dy="658" grid="1" gridSize="10" guides="1" tooltips="1" connect="1" arrows="1" fold="1" page="1" pageScale="1" pageWidth="850" pageHeight="1100" math="0" shadow="0">
      <root>
        <mxCell id="0" />
        <mxCell id="1" parent="0" />
        <mxCell id="gKuDRN3ltkQSUtl-qaiG-1" value="Person" style="swimlane;fontStyle=1;align=center;verticalAlign=top;childLayout=stackLayout;horizontal=1;startSize=26;horizontalStack=0;resizeParent=1;resizeParentMax=0;resizeLast=0;collapsible=1;marginBottom=0;whiteSpace=wrap;html=1;" vertex="1" parent="1">
          <mxGeometry x="180" y="270" width="220" height="320" as="geometry" />
        </mxCell>
        <mxCell id="gKuDRN3ltkQSUtl-qaiG-2" value="+ id&lt;div&gt;+ username&lt;/div&gt;&lt;div&gt;+ password&lt;/div&gt;&lt;div&gt;+ last_name&lt;/div&gt;&lt;div&gt;+ first_name&lt;/div&gt;&lt;div&gt;+ middle_name&lt;/div&gt;&lt;div&gt;+ age&lt;br&gt;+ contact_number&lt;/div&gt;&lt;div&gt;+ gender&lt;/div&gt;&lt;div&gt;+ email&lt;/div&gt;&lt;div&gt;+ address&lt;/div&gt;" style="text;strokeColor=none;fillColor=none;align=left;verticalAlign=top;spacingLeft=4;spacingRight=4;overflow=hidden;rotatable=0;points=[[0,0.5],[1,0.5]];portConstraint=eastwest;whiteSpace=wrap;html=1;" vertex="1" parent="gKuDRN3ltkQSUtl-qaiG-1">
          <mxGeometry y="26" width="220" height="194" as="geometry" />
        </mxCell>
        <mxCell id="gKuDRN3ltkQSUtl-qaiG-3" value="" style="line;strokeWidth=1;fillColor=none;align=left;verticalAlign=middle;spacingTop=-1;spacingLeft=3;spacingRight=3;rotatable=0;labelPosition=right;points=[];portConstraint=eastwest;strokeColor=inherit;" vertex="1" parent="gKuDRN3ltkQSUtl-qaiG-1">
          <mxGeometry y="220" width="220" height="8" as="geometry" />
        </mxCell>
        <mxCell id="gKuDRN3ltkQSUtl-qaiG-4" value="None" style="text;strokeColor=none;fillColor=none;align=left;verticalAlign=top;spacingLeft=4;spacingRight=4;overflow=hidden;rotatable=0;points=[[0,0.5],[1,0.5]];portConstraint=eastwest;whiteSpace=wrap;html=1;" vertex="1" parent="gKuDRN3ltkQSUtl-qaiG-1">
          <mxGeometry y="228" width="220" height="92" as="geometry" />
        </mxCell>
      </root>
    </mxGraphModel>
  </diagram>
</mxfile>
